<?xml version="1.0" encoding="UTF-8" standalone="no"?>
<!-- Uploaded to: SVG Repo, www.svgrepo.com, Transformed by: SVG Repo Mixer Tools -->

<svg
   height="800px"
   width="800px"
   version="1.1"
   id="Layer_1"
   viewBox="0 0 518.3 518.3"
   xml:space="preserve"
   fill="#000000"
   sodipodi:docname="appicon.svg"
   inkscape:version="1.2.1 (9c6d41e410, 2022-07-14)"
   xmlns:inkscape="http://www.inkscape.org/namespaces/inkscape"
   xmlns:sodipodi="http://sodipodi.sourceforge.net/DTD/sodipodi-0.dtd"
   xmlns="http://www.w3.org/2000/svg"
   xmlns:svg="http://www.w3.org/2000/svg"><defs
   id="defs489" /><sodipodi:namedview
   id="namedview487"
   pagecolor="#ffffff"
   bordercolor="#000000"
   borderopacity="0.25"
   inkscape:showpageshadow="2"
   inkscape:pageopacity="0.0"
   inkscape:pagecheckerboard="0"
   inkscape:deskcolor="#d1d1d1"
   showgrid="false"
   inkscape:zoom="1.28375"
   inkscape:cx="393.37877"
   inkscape:cy="400.38948"
   inkscape:window-width="2560"
   inkscape:window-height="1369"
   inkscape:window-x="-8"
   inkscape:window-y="-8"
   inkscape:window-maximized="1"
   inkscape:current-layer="Layer_1" />

<g
   id="SVGRepo_bgCarrier"
   stroke-width="0" />

<g
   id="SVGRepo_tracerCarrier"
   stroke-linecap="round"
   stroke-linejoin="round" />

<g
   id="SVGRepo_iconCarrier"> <g
   id="g483"> <g
   id="g481"> <g
   id="g477"> <g
   id="g461"> <circle
   style="fill:#EDE2D9;"
   cx="259.15"
   cy="259.15"
   r="259.15"
   id="circle457" /> <path
   style="fill:#F2EBE7;"
   d="M0,259.15C0,402.276,116.025,518.3,259.15,518.3V0.004C116.024,0.004,0,116.029,0,259.15z"
   id="path459" /> </g> <g
   id="g475"> <g
   id="g467"> <path
   style="fill:#E06697;"
   d="M232.178,243.933c-2.837-28.466-4.836-92.621-33.066-94.05 c-28.235-1.425-87.097,29.219-110.492,139.655c-23.391,110.444-4.84,147.503,29.831,135.384 c34.684-12.115,109.691-28.504,113.727-52.73C236.209,347.971,236.5,287.363,232.178,243.933z"
   id="path463" /> <path
   style="fill:#E06697;"
   d="M286.122,243.933c2.833-28.466,4.84-92.621,33.062-94.05 c28.239-1.425,87.109,29.219,110.496,139.655c23.386,110.444,4.836,147.503-29.84,135.384 c-34.679-12.115-109.683-28.504-113.718-52.73C282.096,347.971,281.809,287.363,286.122,243.933z"
   id="path465" /> </g> <g
   id="g473"> <path
   style="fill:#E06697;"
   d="M275.42,65.507h-15.17h-15.17c0,0,15.585,143.981-13.18,177.895v37.14 c0,0,28.35-11.289,28.35-40.328c0,29.039,28.35,40.328,28.35,40.328v-37.14C259.843,209.489,275.42,65.507,275.42,65.507z"
   id="path469" /> <path
   style="fill:#E06697;"
   d="M260.254,65.507L260.254,65.507H245.08c0,0,15.585,143.981-13.18,177.895v37.14 c0,0,28.35-11.289,28.35-40.328c0,0.017,0.004,0.026,0.004,0.043V65.507z"
   id="path471" /> </g> </g> </g> <path
   style="opacity:0.2;fill:#FFFFFF;enable-background:new ;"
   d="M0,259.15C0,402.276,116.025,518.3,259.15,518.3V0.004 C116.024,0.004,0,116.029,0,259.15z"
   id="path479" /> </g> </g> </g>

</svg>
